<?xml version="1.0" encoding="UTF-8"?>
<svg version="1.1" xmlns="http://www.w3.org/2000/svg" width="855" height="881">
<path d="M0 0 C1.55581787 0.30599121 1.55581787 0.30599121 3.14306641 0.61816406 C60.59604635 12.24928156 116.10300802 44.35481733 150.82177734 92.37744141 C152.01016421 94.01399738 153.23017469 95.62261288 154.45703125 97.23046875 C180.9615574 132.48806508 196.93399101 176.21948458 201 220 C201.11085938 221.13179687 201.22171875 222.26359375 201.3359375 223.4296875 C204.23275603 258.58297178 200.28423373 293.56440579 189 327 C188.67443115 327.9902417 188.67443115 327.9902417 188.34228516 329.00048828 C179.3227519 356.1145502 164.66522873 380.69621241 147 403 C146.56929199 403.54785156 146.13858398 404.09570312 145.69482422 404.66015625 C133.64540369 419.84905027 119.66146548 433.58199145 104 445 C102.87326729 445.84447783 101.74696797 446.68953421 100.62109375 447.53515625 C66.51716114 472.84609723 25.25350498 488.79907349 -17 493 C-18.08410156 493.11085938 -19.16820312 493.22171875 -20.28515625 493.3359375 C-87.1462827 499.12274844 -153.06696208 477.85985325 -212.37890625 448.7890625 C-213.29559082 448.34208008 -214.21227539 447.89509766 -215.15673828 447.43457031 C-217.18175759 446.41284496 -219.18345461 445.3443293 -221.16748047 444.24511719 C-222.21436035 443.67696289 -223.26124023 443.10880859 -224.33984375 442.5234375 C-225.28077881 441.99411621 -226.22171387 441.46479492 -227.19116211 440.91943359 C-230.85383175 439.72051018 -232.53225239 440.45914122 -236 442 C-238.39298239 443.27048657 -240.72676537 444.57074864 -243.0625 445.9375 C-312.72314369 485.65293413 -393.85598986 506.48077048 -472.97216797 485.05175781 C-503.63603284 476.38935993 -533.36254126 462.4084021 -558 442 C-558.52609863 441.56864746 -559.05219727 441.13729492 -559.59423828 440.69287109 C-582.62488735 421.77804417 -602.67847662 400.72719439 -618 375 C-618.59675537 374.00178223 -618.59675537 374.00178223 -619.20556641 372.98339844 C-652.09563249 317.36672017 -660.94072097 250.36384598 -645.21386719 187.87646484 C-641.6034893 174.08568608 -637.02198317 160.91967887 -631 148 C-630.67918457 147.3100293 -630.35836914 146.62005859 -630.02783203 145.90917969 C-605.25178817 93.28682548 -563.45347889 51.8690188 -511 27 C-510.30567871 26.66613281 -509.61135742 26.33226563 -508.89599609 25.98828125 C-489.83766189 16.88423142 -469.73135099 10.91677999 -449 7 C-448.13938965 6.83483887 -447.2787793 6.66967773 -446.39208984 6.49951172 C-417.80377309 1.30603017 -385.54284287 1.86786669 -357 7 C-355.89720703 7.19335938 -354.79441406 7.38671875 -353.65820312 7.5859375 C-320.62804865 13.52806412 -288.73155915 23.75434213 -257.875 36.875 C-256.12388916 37.61882935 -256.12388916 37.61882935 -254.33740234 38.37768555 C-248.60252404 40.85842273 -243.0109083 43.46710326 -237.50390625 46.421875 C-236.47861816 46.9595752 -235.45333008 47.49727539 -234.39697266 48.05126953 C-232.48271605 49.06919546 -230.58815037 50.12545237 -228.72021484 51.22607422 C-225.06070046 53.16273626 -222.55786725 54.47226803 -218.47363281 53.23413086 C-215.53274523 51.64165285 -212.79315955 49.8392521 -210 48 C-207.48307922 46.56924974 -204.92582939 45.21766895 -202.3671875 43.86328125 C-200.98304244 43.11950011 -199.59909472 42.37535165 -198.21533203 41.63085938 C-158.73146309 20.50418631 -117.60818131 4.20451638 -73 -2 C-71.91295776 -2.1546875 -71.91295776 -2.1546875 -70.80395508 -2.3125 C-47.94292903 -5.08203479 -22.54175151 -4.48039773 0 0 Z M-503.41210938 179.22119141 C-513.33712534 190.33952878 -520.60376317 204.13233677 -525.375 218.1875 C-525.61371826 218.88705811 -525.85243652 219.58661621 -526.09838867 220.30737305 C-534.92796296 247.91376354 -530.93797438 279.55493528 -517.9296875 305.16015625 C-513.48340344 313.5557463 -508.30991452 320.87213359 -502 328 C-501.42765625 328.70382812 -500.8553125 329.40765625 -500.265625 330.1328125 C-482.90052042 351.21901092 -454.30652959 364.54441449 -427.5078125 367.71875 C-397.4304666 370.13029666 -367.73972741 362.01420155 -344.55859375 342.359375 C-322.35251168 322.99166432 -306.72790547 295.67860115 -304 266 C-301.96096835 232.91428409 -311.25742925 202.18884734 -333.19580078 177.02880859 C-353.94099489 154.02914495 -382.91538465 140.42262626 -413.8671875 138.796875 C-449.6692369 138.08937738 -479.25336382 153.39894366 -503.41210938 179.22119141 Z " fill="#BE1316" transform="translate(653,3)"/>
<path d="M0 0 C1.03721191 0.20399414 2.07442383 0.40798828 3.14306641 0.61816406 C60.59604635 12.24928156 116.10300802 44.35481733 150.82177734 92.37744141 C152.01016421 94.01399738 153.23017469 95.62261288 154.45703125 97.23046875 C180.9615574 132.48806508 196.93399101 176.21948458 201 220 C201.11085938 221.13179687 201.22171875 222.26359375 201.3359375 223.4296875 C204.23275603 258.58297178 200.28423373 293.56440579 189 327 C188.67443115 327.9902417 188.67443115 327.9902417 188.34228516 329.00048828 C179.3227519 356.1145502 164.66522873 380.69621241 147 403 C146.56929199 403.54785156 146.13858398 404.09570312 145.69482422 404.66015625 C133.64540369 419.84905027 119.66146548 433.58199145 104 445 C102.87326729 445.84447783 101.74696797 446.68953421 100.62109375 447.53515625 C66.51716114 472.84609723 25.25350498 488.79907349 -17 493 C-18.08410156 493.11085938 -19.16820312 493.22171875 -20.28515625 493.3359375 C-93.0608775 499.63465489 -168.25382341 474.42726472 -231 439 C-227.49497066 435.02702171 -223.39318996 432.70011997 -218.875 430.0625 C-209.16011597 424.26052784 -200.07018259 417.7523959 -191 411 C-189.89864026 410.18722518 -188.79709657 409.37469951 -187.6953125 408.5625 C-177.09475864 400.6894096 -166.70822841 392.55899961 -156.67504883 383.97387695 C-153.41633148 381.18598961 -150.10772184 378.48145839 -146.75 375.8125 C-140.96031569 371.11103829 -135.58070952 365.99557661 -130.18847656 360.84692383 C-129.16125488 359.86695435 -129.16125488 359.86695435 -128.11328125 358.8671875 C-127.51298096 358.29081543 -126.91268066 357.71444336 -126.29418945 357.12060547 C-124.35011935 355.32362846 -122.37135087 353.59652728 -120.36425781 351.87133789 C-115.38116164 347.5251864 -110.72702269 342.87060657 -106.05859375 338.19140625 C-105.13208511 337.26585434 -104.20557648 336.34030243 -103.25099182 335.38670349 C-101.30217639 333.43935145 -99.35515263 331.49023087 -97.40942383 329.53979492 C-94.93636139 327.06103605 -92.45883467 324.58679569 -89.97993374 322.1138773 C-87.58703799 319.72549855 -85.19799682 317.3332792 -82.80859375 314.94140625 C-81.48957314 313.62542198 -81.48957314 313.62542198 -80.14390564 312.28285217 C-75.77024628 307.892673 -71.52811064 303.44863114 -67.49998474 298.73809814 C-64.96683439 295.80282567 -62.28512324 293.00721435 -59.625 290.1875 C-54.93689665 285.18319419 -50.51306032 280.05049625 -46.23046875 274.69140625 C-43.82237991 271.78567383 -41.27713356 269.05728992 -38.6875 266.3125 C-34.35408234 261.68271465 -30.42890063 256.82285118 -26.625 251.75 C-25.89349731 250.776073 -25.89349731 250.776073 -25.1472168 249.7824707 C-16.67859369 238.57844242 -16.67859369 238.57844242 -15 225 C-16.96658358 215.67225952 -23.9795954 209.70323319 -30.96484375 203.78125 C-33.07368528 201.9355077 -35.03598542 199.99860583 -37 198 C-40.1711603 194.78565269 -43.45582753 191.78249037 -46.87890625 188.83984375 C-49.22491058 186.80491181 -51.5173645 184.71709033 -53.8125 182.625 C-58.08661469 178.76660467 -62.49444914 175.11773814 -66.97265625 171.5 C-69.78180898 169.18018355 -72.5226183 166.80247368 -75.25585938 164.39477539 C-81.40673562 158.98222925 -87.68354451 153.79704874 -94.1875 148.8125 C-94.90631348 148.25981445 -95.62512695 147.70712891 -96.36572266 147.13769531 C-103.36527685 141.73060519 -103.36527685 141.73060519 -112 141 C-114.57084111 142.08212063 -116.91235957 143.19546299 -119.3515625 144.515625 C-120.77682269 145.25748808 -122.20295605 145.99767566 -123.62988281 146.73632812 C-124.35534302 147.1150708 -125.08080322 147.49381348 -125.82824707 147.8840332 C-129.21034157 149.62194045 -132.64364491 151.24482366 -136.0859375 152.859375 C-136.75675858 153.1750946 -137.42757965 153.49081421 -138.11872864 153.81610107 C-140.20327324 154.79595264 -142.28908591 155.77306769 -144.375 156.75 C-145.86584399 157.45011024 -147.35664733 158.15030704 -148.84741211 158.85058594 C-158.77883454 163.51146534 -168.73358393 168.1197708 -178.70654297 172.69116211 C-185.10458009 175.63301353 -191.45365397 178.6620263 -197.78369141 181.74731445 C-232.15066484 198.47167051 -265.42860381 206.19379154 -302.60864258 193.3972168 C-325.32323919 185.21757598 -340.08313288 171.4044715 -351.5625 150.5625 C-353.15587892 146.61369137 -353.71407812 144.20512671 -353 140 C-348.71141465 134.74738391 -342.91804345 131.6174715 -337.1875 128.125 C-335.02072893 126.7879296 -332.8540653 125.45068506 -330.6875 124.11328125 C-329.57890625 123.43217285 -328.4703125 122.75106445 -327.328125 122.04931641 C-322.09862449 118.82921464 -316.89328456 115.57075133 -311.6875 112.3125 C-310.19089844 111.37724487 -310.19089844 111.37724487 -308.6640625 110.4230957 C-299.42291652 104.6466215 -290.20818801 98.82881862 -281 93 C-277.93798476 91.06173251 -274.8755547 89.12412445 -271.8125 87.1875 C-271.04268799 86.70071777 -270.27287598 86.21393555 -269.47973633 85.71240234 C-263.99259288 82.24713308 -258.48982134 78.80748064 -252.98242188 75.37451172 C-244.26252837 69.93896528 -235.55810704 64.4879108 -226.96630859 58.85131836 C-215.84375859 51.57888182 -204.48744176 44.90423939 -192.75 38.6875 C-192.05579956 38.31938202 -191.36159912 37.95126404 -190.6463623 37.57199097 C-153.73526056 18.06293529 -114.47932347 3.76932603 -73 -2 C-72.27530518 -2.103125 -71.55061035 -2.20625 -70.80395508 -2.3125 C-47.94292903 -5.08203479 -22.54175151 -4.48039773 0 0 Z " fill="#4EBFDF" transform="translate(653,3)"/>
<path d="M0 0 C1.08990234 -0.01160156 2.17980469 -0.02320313 3.30273438 -0.03515625 C20.23537081 0.02520966 34.35827653 5.6484651 46.3671875 17.515625 C58.85124858 30.75958545 65.87125032 49.12577087 66.30859375 67.296875 C66.34146484 68.40546875 66.37433594 69.5140625 66.40820312 70.65625 C66.46898517 72.95303528 66.52632505 75.24991446 66.58007812 77.546875 C66.46370021 89.62610427 66.46370021 89.62610427 71.5 99.9375 C75.73928512 102.31563555 78.91092629 102.50372628 83.70939636 102.51544189 C84.38826835 102.51841302 85.06714035 102.52138414 85.76658422 102.5244453 C88.04646896 102.53313225 90.32630119 102.53464055 92.60620117 102.53613281 C94.23896395 102.54076108 95.87172565 102.54578575 97.50448608 102.55117798 C101.94478621 102.56430523 106.38507121 102.57074785 110.82538772 102.57518864 C113.60026678 102.57811951 116.37514171 102.58222439 119.15001869 102.58669281 C127.83395945 102.60037007 136.51789075 102.61003498 145.20184153 102.6138947 C155.22201072 102.61837284 165.24204331 102.63590842 175.26217097 102.6648953 C183.00921666 102.68652727 190.75622397 102.69659983 198.50329953 102.69793582 C203.12913182 102.69898298 207.75483576 102.70487158 212.38063622 102.72275543 C216.73498478 102.73926178 221.08910888 102.7413792 225.44347763 102.73261642 C227.03817026 102.73184736 228.63287509 102.73617156 230.22753716 102.74607468 C241.50144684 102.8965606 241.50144684 102.8965606 252.0625 99.375 C255.88777025 95.42633393 256.19342751 91.57575971 256.26782227 86.2512207 C256.28776749 84.99013992 256.30771271 83.72905914 256.32826233 82.42976379 C256.34524533 81.05343753 256.36212419 79.67710998 256.37890625 78.30078125 C256.39948197 76.89258725 256.4204786 75.48439935 256.44187927 74.07621765 C256.49703622 70.37239519 256.54647354 66.66851759 256.59472656 62.96459961 C256.64498821 59.18403218 256.70064992 55.40354471 256.75585938 51.62304688 C256.86336292 44.20709898 256.96482514 36.79108455 257.0625 29.375 C281.20277027 16.16445946 281.20277027 16.16445946 291.8125 10.625 C292.79347656 10.10679687 293.77445313 9.58859375 294.78515625 9.0546875 C296.18314453 8.32378906 296.18314453 8.32378906 297.609375 7.578125 C298.42245117 7.15176758 299.23552734 6.72541016 300.07324219 6.28613281 C302.0625 5.375 302.0625 5.375 304.0625 5.375 C304.15567676 17.22429452 304.22650504 29.07350014 304.26974869 40.92308807 C304.29051613 46.42688551 304.31863296 51.93043007 304.36425781 57.43408203 C304.40810567 62.75742536 304.43171836 68.08052732 304.44200897 73.40403748 C304.4493311 75.42276299 304.46362677 77.44147711 304.48542023 79.46009827 C304.69659331 99.85355234 302.16115999 117.63795168 287.546875 133.0859375 C272.59658397 146.86089119 255.32405985 148.68028138 235.95166016 148.6496582 C234.12731214 148.65401136 232.30296595 148.65919651 230.47862244 148.66514587 C225.54672721 148.6784821 220.61490887 148.67912056 215.68299913 148.67658257 C211.55549203 148.67550922 207.42800026 148.68040552 203.30049646 148.685188 C193.55774107 148.69626456 183.81502425 148.69673099 174.07226562 148.69067383 C164.04411169 148.6846348 154.01609809 148.69694754 143.98796809 148.7182439 C135.35664341 148.73589532 126.72536325 148.74185568 118.0940212 148.73860615 C112.94839049 148.73679883 107.80285989 148.73937437 102.65724564 148.75332069 C97.81606622 148.76595219 92.97510461 148.76390485 88.1339283 148.75090981 C86.3651465 148.74855604 84.59634912 148.75123528 82.82758522 148.75953293 C71.17019485 148.81024425 59.68861551 148.84539079 49.625 142.125 C46.97674055 140.66484579 46.97674055 140.66484579 44.0625 140.375 C40.36937562 142.16053749 37.44332738 144.39059641 34.25390625 146.9375 C21.9966339 156.69321301 3.08625721 156.6011004 -11.80078125 154.9453125 C-23.85515366 152.91747415 -34.32352892 147.92883442 -43.9375 140.375 C-44.77152344 140.78492188 -45.60554688 141.19484375 -46.46484375 141.6171875 C-47.59019531 142.15601563 -48.71554687 142.69484375 -49.875 143.25 C-50.97714844 143.78367187 -52.07929688 144.31734375 -53.21484375 144.8671875 C-60.87385458 148.1872243 -68.52730641 148.66335414 -76.78149414 148.60205078 C-77.82644043 148.60234283 -78.87138672 148.60263489 -79.94799805 148.60293579 C-83.37297108 148.60155182 -86.79772162 148.58603463 -90.22265625 148.5703125 C-92.60875835 148.56657906 -94.994862 148.56373365 -97.38096619 148.56173706 C-103.63955979 148.55412672 -109.89805952 148.53450061 -116.15661621 148.5123291 C-122.55166352 148.49181458 -128.9467261 148.48272337 -135.34179688 148.47265625 C-147.8737378 148.45125222 -160.40561389 148.41753608 -172.9375 148.375 C-173.06551498 149.12514877 -173.19352997 149.87529755 -173.32542419 150.6481781 C-173.49832474 151.63496048 -173.67122528 152.62174286 -173.84936523 153.63842773 C-174.01863022 154.61545151 -174.1878952 155.59247528 -174.36228943 156.59910583 C-177.41463189 171.32932819 -188.89642584 183.16592749 -200.9375 191.375 C-231.49606038 210.4595336 -272.11583095 213.4357814 -306.86230469 206.05810547 C-314.56109334 204.27321043 -321.81578258 201.82001748 -328.9375 198.375 C-330.32001953 197.71371094 -330.32001953 197.71371094 -331.73046875 197.0390625 C-350.24267474 187.58713222 -364.10376988 171.44786144 -371.12890625 151.93359375 C-371.39574219 151.08925781 -371.66257812 150.24492188 -371.9375 149.375 C-372.23527344 148.45847656 -372.53304687 147.54195312 -372.83984375 146.59765625 C-378.56785407 125.24300028 -375.97477244 101.67147558 -366.98828125 81.6953125 C-361.38022348 75.35019571 -349.38780913 74.83347596 -341.32421875 73.15795898 C-339.0454818 72.68396005 -336.76878089 72.20097584 -334.4921875 71.71679688 C-333.03917293 71.41093328 -331.58605162 71.10557616 -330.1328125 70.80078125 C-329.45469513 70.65707596 -328.77657776 70.51337067 -328.07791138 70.36531067 C-325.29897452 69.7911247 -322.78501702 69.375 -319.9375 69.375 C-320.58284642 72.53877146 -321.74170842 75.3831768 -323.00732422 78.34570312 C-330.49951358 96.06525345 -334.36043399 118.93013372 -326.9375 137.375 C-322.34481937 148.20901585 -315.3036998 155.40978019 -304.61328125 160.34765625 C-283.78661492 168.34387996 -256.51109577 167.78404906 -235.9375 159.375 C-231.35478821 156.85185955 -227.63524452 154.07274452 -223.9375 150.375 C-233.1775 150.045 -242.4175 149.715 -251.9375 149.375 C-250.67978368 145.60185104 -249.65337058 142.55835624 -247.89038086 139.12963867 C-247.49334457 138.35251022 -247.09630829 137.57538177 -246.6872406 136.77470398 C-246.26322464 135.95573135 -245.83920868 135.13675873 -245.40234375 134.29296875 C-244.96362442 133.43818436 -244.52490509 132.58339996 -244.07289124 131.70271301 C-243.14948661 129.90567067 -242.22402677 128.10968309 -241.29663086 126.31469727 C-239.87197735 123.55664832 -238.45404059 120.79522599 -237.03710938 118.03320312 C-236.13841075 116.28625769 -235.2393355 114.53950594 -234.33984375 112.79296875 C-233.91380356 111.96387497 -233.48776337 111.13478119 -233.04881287 110.28056335 C-232.65492874 109.51919571 -232.26104462 108.75782806 -231.85522461 107.97338867 C-231.33465736 106.96461922 -231.33465736 106.96461922 -230.80357361 105.93547058 C-229.9375 104.375 -229.9375 104.375 -228.9375 103.375 C-226.99175944 103.27267176 -225.04226587 103.24145222 -223.09384155 103.23696899 C-221.82363159 103.23151566 -220.55342163 103.22606232 -219.24472046 103.22044373 C-217.82379156 103.2193238 -216.4028626 103.2182733 -214.98193359 103.21728516 C-213.49562428 103.21261931 -212.00931639 103.20747614 -210.52301025 103.20188904 C-207.31399036 103.19058701 -204.10497987 103.18216286 -200.8959465 103.17576981 C-195.8195625 103.16510779 -190.74324559 103.14486619 -185.66690063 103.12265015 C-171.22864873 103.06067056 -156.7903998 103.00675271 -142.35205078 102.97363281 C-134.38412218 102.95527474 -126.416305 102.92632029 -118.44845831 102.8856281 C-114.231219 102.86457091 -110.01412006 102.84910274 -105.79682541 102.84682083 C-101.82574995 102.84466983 -97.85496632 102.82875453 -93.8839798 102.80243111 C-92.42918381 102.79525273 -90.97435241 102.79313005 -89.51954269 102.79653358 C-79.28119589 102.96437612 -79.28119589 102.96437612 -69.9375 99.375 C-65.85817387 94.13972519 -66.46330899 87.78677474 -66.375 81.4375 C-65.66724495 56.04427277 -61.77732867 32.34286343 -42.5234375 14.0859375 C-30.20406561 3.64380323 -15.90030821 -0.16865383 0 0 Z M-11.9375 48.375 C-19.80663944 58.48946722 -19.88483475 72.1068674 -18.9375 84.375 C-17.66046559 93.74302613 -15.90738605 100.40511395 -9.125 107.1875 C-4.87210685 110.10615216 -1.78435269 110.88949145 3.33203125 109.96484375 C7.80658627 108.72562204 11.20332443 107.20609084 14.00390625 103.30078125 C17.79114726 96.41107713 19.74742307 89.19712728 20.0625 81.375 C20.10246094 80.60800781 20.14242187 79.84101562 20.18359375 79.05078125 C20.44587723 69.46972009 19.91350643 58.35879264 14.0625 50.375 C9.97652432 46.19473257 6.71341405 44.21550671 0.875 44.0625 C-4.3546428 44.14453361 -8.09929163 44.66707024 -11.9375 48.375 Z " fill="#3E4040" transform="translate(459.9375,604.625)"/>
<path d="M0 0 C0.12438696 6.08309628 0.21470951 12.16543851 0.2746582 18.24951172 C0.29967089 20.31539826 0.33369236 22.38119748 0.37719727 24.44677734 C0.43843558 27.43088424 0.4663426 30.41381287 0.48828125 33.3984375 C0.51408768 34.30927094 0.5398941 35.22010437 0.56648254 36.15853882 C0.56972781 43.72190104 -1.58363471 50.2423003 -6.74272156 55.9168396 C-14.47532211 63.12067146 -23.48879549 64.27294526 -33.703125 64.23828125 C-37.53594089 63.96126494 -40.59487826 62.9781276 -44.15234375 61.609375 C-46.77971961 60.74284089 -48.3989178 61.1329726 -51 62 C-61.87733191 65.30204719 -72.77641058 65.3984374 -83 60 C-88.79094579 56.14911854 -92.87400676 51.69551972 -95 45 C-95.46002837 40.65051165 -95.38006762 36.36727033 -95.25 32 C-95.23195313 30.84371094 -95.21390625 29.68742188 -95.1953125 28.49609375 C-95.1484876 25.66318725 -95.08292012 22.83204116 -95 20 C-91.04533792 17.82658104 -87.08568659 15.66241799 -83.125 13.5 C-81.99707031 12.87996094 -80.86914062 12.25992188 -79.70703125 11.62109375 C-78.63066406 11.03457031 -77.55429687 10.44804688 -76.4453125 9.84375 C-75.45031738 9.29912109 -74.45532227 8.75449219 -73.43017578 8.19335938 C-71 7 -71 7 -69 7 C-68.505 22.345 -68.505 22.345 -68 38 C-66.02 38 -64.04 38 -62 38 C-62.10062744 37.43716309 -62.20125488 36.87432617 -62.30493164 36.29443359 C-63.2776789 29.73323662 -63.87028976 23.14008687 -61 17 C-55.0090276 11.25193689 -42.60521527 3 -34 3 C-33.67 14.22 -33.34 25.44 -33 37 C-31.35 37 -29.7 37 -28 37 C-27.67 36.67 -27.34 36.34 -27 36 C-27.04967294 34.47839004 -27.15397772 32.95849756 -27.28125 31.44140625 C-28.01849236 16.46793676 -28.01849236 16.46793676 -24.40136719 12.04541016 C-20.38849192 8.86308855 -15.87737551 6.81295924 -11.14746094 4.91308594 C-9.00697554 4.00296595 -7.06887056 2.9441002 -5.0703125 1.7578125 C-2 0 -2 0 0 0 Z " fill="#3E4040" transform="translate(504,510)"/>
<path d="M0 0 C4.6345345 3.30517883 7.64211274 7.88697204 8.98828125 13.41796875 C9.8406127 22.4365569 9.14692435 29.45438673 4.23828125 37.16796875 C-1.04415608 42.45040608 -6.88794379 44.54156118 -14.26171875 44.66796875 C-22.19900166 44.56241978 -27.68985238 42.41021593 -33.5390625 37.02734375 C-38.54089035 31.56115522 -39.34853822 24.91936177 -39.21875 17.81640625 C-38.60585394 10.7160632 -36.20413436 5.61477232 -30.875 0.859375 C-21.9399888 -6.0526148 -9.55734972 -5.58424525 0 0 Z " fill="#3E4040" transform="translate(228.01171875,836.58203125)"/>
<path d="M0 0 C6.28577183 3.79765381 11.04123181 7.58266459 13 14.8125 C13.91677577 23.27864359 14.03645956 31.61755777 9 38.8125 C3.47508366 44.5885489 -2.49931286 46.91675513 -10.375 47.25 C-16.90340933 47.03268818 -22.88316257 45.53569957 -27.88671875 41.1640625 C-33.37153642 35.08162547 -34.89165543 28.90222772 -35 20.8125 C-34.25871867 13.47028492 -31.64848735 8.00229344 -26.0625 3.0625 C-18.83791054 -2.24536164 -8.45409641 -3.33614567 0 0 Z " fill="#3E4040" transform="translate(171,834.1875)"/>
<path d="M0 0 C4.54347008 2.88678994 7.88563881 6.54781813 9.55859375 11.73046875 C10.93404041 18.80245554 11.19502619 27.57708487 8.1796875 34.25390625 C4.73810286 39.34790735 -0.12824931 43.19853669 -6 45 C-13.99864564 45.7703063 -22.45304101 46.31843224 -29 41 C-35.03502472 35.27689791 -37.29078778 29.86073838 -37.96484375 21.625 C-38.05630908 14.79558901 -36.34396545 9.33687184 -32 4 C-23.20218186 -4.55343431 -10.7817676 -5.18433653 0 0 Z " fill="#3E4040" transform="translate(751,782)"/>
<path d="M0 0 C4.1772825 3.26841769 6.50207263 6.57690597 8.0546875 11.7109375 C8.36050969 14.46333718 8.5338348 16.91020948 8.4921875 19.6484375 C8.48388916 20.35210449 8.47559082 21.05577148 8.46704102 21.78076172 C8.24993245 28.44545376 6.96647584 32.64734977 2.40625 37.4453125 C-4.23820986 43.5384853 -10.41578744 44.26302194 -19.2734375 44.01953125 C-26.77114033 43.38940516 -30.94574036 40.31378511 -35.71875 34.6875 C-40.06644729 27.68133813 -39.61086222 19.6548707 -38.9453125 11.7109375 C-37.4992788 5.75291257 -34.00158251 2.28014996 -29.01171875 -1.1015625 C-19.91880098 -6.32698216 -8.64324872 -5.72745397 0 0 Z " fill="#3E4040" transform="translate(699.9453125,783.2890625)"/>
</svg>
